{"title":"tantrance9.rar","uid":3912867,"size":280013791,"categoryP":"audio","categoryS":"music","magnet":"?xt=urn:btih:a703aacfe4511dd2e681a228ca055cd036c60d21&amp;dn=tantrance9.rar&amp;tr=udp%3A%2F%2Ftracker.openbittorrent.com%3A80&amp;tr=udp%3A%2F%2Fopen.demonii.com%3A1337&amp;tr=udp%3A%2F%2Ftracker.coppersurfer.tk%3A6969&amp;tr=udp%3A%2F%2Fexodus.desync.com%3A6969","seeders":0,"leechers":1,"uploader":"chemiko","files":1,"time":1196270462,"description":"192kbs, ripper: EAC, encoder: LAME 3.90.3\n\n\n\nPERFORMER \\&quot;Various Artists\\&quot;\nTITLE \\&quot;Tantrance 9 CD 1\\&quot;\nFILE \\&quot;Chicago Coin\\&amp;#039;s Cinema.wav\\&quot; WAVE\n  TRACK 01 AUDIO\n    TITLE \\&quot;Chicago Coin\\&amp;#039;s Cinema\\&quot;\n    PERFORMER \\&quot;Intact Instict\\&quot;\n    INDEX 01 00:00:00\n  TRACK 02 AUDIO\n    TITLE \\&quot;Zeitmaschine\\&quot;\n    PERFORMER \\&quot;Ouija feat. Dj Alex\\&quot;\n    INDEX 00 08:37:30\nFILE \\&quot;Zeitmaschine.wav\\&quot; WAVE\n    INDEX 01 00:00:00\n  TRACK 03 AUDIO\n    TITLE \\&quot;Akasha\\&quot;\n    PERFORMER \\&quot;Element\\&quot;\n    INDEX 00 07:53:14\nFILE \\&quot;Akasha.wav\\&quot; WAVE\n    INDEX 01 00:00:00\n  TRACK 04 AUDIO\n    TITLE \\&quot;NÃƒ?Ã‚Â¶\\&quot;\n    PERFORMER \\&quot;Feuerhake\\&quot;\n    INDEX 00 09:34:03\nFILE \\&quot;NÃƒ?Ã‚Â¶.wav\\&quot; WAVE\n    INDEX 01 00:00:00\n  TRACK 05 AUDIO\n    TITLE \\&quot;The Lark\\&quot;\n    PERFORMER \\&quot;Slap\\&quot;\n    INDEX 00 09:24:23\nFILE \\&quot;The Lark.wav\\&quot; WAVE\n    INDEX 01 00:00:00\n  TRACK 06 AUDIO\n    TITLE \\&quot;Machine Life (Alternator Remix)\\&quot;\n    PERFORMER \\&quot;Avatar\\&quot;\n    INDEX 00 06:38:65\nFILE \\&quot;Machine Life (Alternator Remix).wav\\&quot; WAVE\n    INDEX 01 00:00:00\n  TRACK 07 AUDIO\n    TITLE \\&quot;No Shelter\\&quot;\n    PERFORMER \\&quot;Gabriel Le Mar\\&quot;\n    INDEX 00 09:03:74\nFILE \\&quot;No Shelter.wav\\&quot; WAVE\n    INDEX 01 00:00:00\n  TRACK 08 AUDIO\n    TITLE \\&quot;Medical Trauma\\&quot;\n    PERFORMER \\&quot;Atmos\\&quot;\n    INDEX 00 07:11:54\nFILE \\&quot;Medical Trauma.wav\\&quot; WAVE\n    INDEX 01 00:00:00\n  TRACK 09 AUDIO\n    TITLE \\&quot;Black Beyond Rotation\\&quot;\n    PERFORMER \\&quot;Son Kite\\&quot;\n    INDEX 00 10:04:05\nFILE \\&quot;Black Beyond Rotation.wav\\&quot; WAVE\n    INDEX 01 00:00:00\n\n\nPERFORMER \\&quot;Various Artists\\&quot;\nTITLE \\&quot;Tantrance 9 CD 2\\&quot;\nFILE \\&quot;The Great Unknown.wav\\&quot; WAVE\n  TRACK 01 AUDIO\n    TITLE \\&quot;The Great Unknown\\&quot;\n    PERFORMER \\&quot;Koxbox\\&quot;\n    INDEX 01 00:00:00\n  TRACK 02 AUDIO\n    TITLE \\&quot;Foxhunt (Gonzo)\\&quot;\n    PERFORMER \\&quot;Synchro\\&quot;\n    INDEX 00 10:32:21\nFILE \\&quot;Foxhunt (Gonzo).wav\\&quot; WAVE\n    INDEX 01 00:00:00\n  TRACK 03 AUDIO\n    TITLE \\&quot;Lucy (Female Mix)\\&quot;\n    PERFORMER \\&quot;4 FÃƒ?Ã‚Â³Carry Nuts\\&quot;\n    INDEX 00 07:40:19\nFILE \\&quot;Lucy (Female Mix).wav\\&quot; WAVE\n    INDEX 01 00:00:00\n  TRACK 04 AUDIO\n    TITLE \\&quot;Supercell\\&quot;\n    PERFORMER \\&quot;The Delta\\&quot;\n    INDEX 00 08:14:17\nFILE \\&quot;Supercell.wav\\&quot; WAVE\n    INDEX 01 00:00:00\n  TRACK 05 AUDIO\n    TITLE \\&quot;Good Time\\&quot;\n    PERFORMER \\&quot;Midi Miliz\\&quot;\n    INDEX 00 09:49:70\nFILE \\&quot;Good Time.wav\\&quot; WAVE\n    INDEX 01 00:00:00\n  TRACK 06 AUDIO\n    TITLE \\&quot;Goons\\&quot;\n    PERFORMER \\&quot;Noma\\&quot;\n    INDEX 00 06:39:25\nFILE \\&quot;Goons.wav\\&quot; WAVE\n    INDEX 01 00:00:00\n  TRACK 07 AUDIO\n    TITLE \\&quot;Tomorrow\\&quot;\n    PERFORMER \\&quot;Tarsis\\&quot;\n    INDEX 00 07:50:20\nFILE \\&quot;Tomorrow.wav\\&quot; WAVE\n    INDEX 01 00:00:00\n  TRACK 08 AUDIO\n    TITLE \\&quot;Love Is Not A Crime\\&quot;\n    PERFORMER \\&quot;Electric Universe\\&quot;\n    INDEX 00 08:15:21\nFILE \\&quot;Love Is Not A Crime.wav\\&quot; WAVE\n    INDEX 01 00:00:00\n  TRACK 09 AUDIO\n    TITLE \\&quot;Coming Home\\&quot;\n    PERFORMER \\&quot;California Sunshine\\&quot;\n    INDEX 00 08:48:70\nFILE \\&quot;Coming Home.wav\\&quot; WAVE\n    INDEX 01 00:00:00\n","torrent":{"xt":"urn:btih:a703aacfe4511dd2e681a228ca055cd036c60d21","amp;dn":"tantrance9.rar","amp;tr":["udp%3A%2F%2Ftracker.openbittorrent.com%3A80","udp%3A%2F%2Fopen.demonii.com%3A1337","udp%3A%2F%2Ftracker.coppersurfer.tk%3A6969","udp%3A%2F%2Fexodus.desync.com%3A6969"],"infoHash":"a703aacfe4511dd2e681a228ca055cd036c60d21","infoHashBuffer":{"type":"Buffer","data":[167,3,170,207,228,81,29,210,230,129,162,40,202,5,92,208,54,198,13,33]},"announce":[],"urlList":[]}}